<svg width="219" height="161" viewBox="0 0 219 161" fill="none" xmlns="http://www.w3.org/2000/svg">
<path fill-rule="evenodd" clip-rule="evenodd" d="M141.489 0.999974C138.534 2.11297 138.866 3.71213 142.053 3.71213C147.968 3.71213 150.706 10.6497 145.999 13.7159C144.068 14.9733 142.901 15.0856 139.827 14.3096C135.353 13.1806 134.962 14.1416 138.547 17.4457C140.608 19.3441 142.041 19.7604 146.515 19.7604C151.454 19.7604 152.497 20.1465 157.546 23.8414C164.622 29.0202 172.355 37.573 176.229 44.5068C178.954 49.3845 179.769 50.0982 184.735 51.9504C187.754 53.0766 190.443 53.7818 190.709 53.5174C191.483 52.749 188.232 45.3111 184.123 38.4434C179.144 30.1228 170.57 20.7771 162.972 15.3868C159.342 12.8124 156.136 9.65093 155.092 7.61564C151.826 1.25392 147.022 -1.08252 141.489 0.999974ZM77.8167 4.68069C76.4711 5.73232 75.1112 7.40701 74.7931 8.402C74.4759 9.39605 71.2823 12.3725 67.6956 15.0148C59.1498 21.3133 50.6706 30.4127 45.8797 38.4302C42.1486 44.6748 37.2314 56.7214 35.901 62.8792L35.2543 65.8774L40.2028 64.5794C46.0136 63.0558 46.1789 62.9123 47.7344 57.993C53.2726 40.4778 70.3384 21.4936 82.2259 19.6263C88.4412 18.6493 91.4021 15.8843 91.4021 11.0566C91.4021 3.8745 83.5563 0.192843 77.8167 4.68069ZM88.1211 6.02969C90.97 8.86079 91.0954 12.0855 88.4839 15.3849C84.4689 20.4599 76.208 17.5693 76.208 11.0887C76.208 4.51832 83.4908 1.42573 88.1211 6.02969ZM80.4814 5.78424C76.6164 7.96303 75.9953 11.9968 79.0569 15.0403C81.7073 17.6751 85.1697 17.4306 87.5343 14.4409C90.085 11.218 90.0157 9.80009 87.1715 6.97371C84.599 4.41637 83.3141 4.18791 80.4814 5.78424ZM87.4744 9.41304C88.3225 11.8326 88.1886 12.5708 86.6169 14.1331C85.5932 15.1508 83.9247 15.9843 82.9096 15.9843C81.0369 15.9843 78.1073 12.7294 78.1073 10.6497C78.1073 8.64461 81.0094 6.54418 83.7804 6.54418C85.9209 6.54418 86.673 7.12852 87.4744 9.41304ZM117.517 42.5149C107.151 43.9914 94.6366 49.0636 83.1897 56.4297C77.7939 59.9028 75.8871 60.4758 58.0245 63.9903C26.6659 70.1614 7.70177 76.6345 4.13591 82.3854C1.74285 86.2427 0.633676 90.5615 2.03438 90.5615C3.69433 90.5615 3.33822 96.9771 1.65833 97.3367C0.418114 97.6011 0.450401 98.0787 1.89574 100.946C4.20524 105.527 8.71407 107.551 16.6188 107.552L23.0288 107.554L23.0497 102.598C23.1029 90.0263 32.1129 80.7797 44.3955 80.6956C49.1056 80.6626 50.8928 81.1459 54.7094 83.4852C65.3965 90.0329 60.5448 89.5222 112.518 89.5722L159.748 89.6175L166.014 86.3135C172.933 82.6639 176.915 82.2146 182.346 84.4708C191.06 88.0892 195.298 96.8525 192.742 105.962L191.996 108.619L198.914 108.008C202.72 107.672 207.151 106.998 208.762 106.51C212.223 105.462 216.226 101.541 217.642 97.8163C218.917 94.4622 218.952 88.969 217.703 88.2015C217.181 87.8805 216.753 86.6505 216.753 85.4686C216.753 83.6457 215.887 83.0793 211.05 81.7426C201.98 79.2362 199.512 75.4667 203.577 70.3304C205.511 67.8854 205.846 67.807 211.68 68.4282L217.766 69.0758L216.662 66.6666C215.342 63.7874 214.268 63.3494 197.761 58.9682C188.421 56.4901 181.588 53.912 172.595 49.4723C161.863 44.1736 159.2 43.2532 152.203 42.4253C142.797 41.3113 125.651 41.3557 117.517 42.5149ZM153.729 49.4997C156.411 50.3956 159.702 52.1401 161.043 53.3768C164.446 56.5128 166.604 64.7635 164.747 67.5266C164.294 68.1997 156.251 68.7841 141.838 69.1909L119.628 69.8178L120.301 61.5661C121.205 50.4928 121.729 48.2621 123.561 47.707C127.173 46.6139 148.968 47.909 153.729 49.4997ZM116.769 59.881L114.624 69.3212L95.6982 69.578L76.7721 69.8347L82.4253 65.4687C89.7431 59.8187 99.4208 54.1226 105.804 51.7087C112.384 49.2203 118.397 48.1705 118.69 49.4572C118.812 49.9981 117.948 54.689 116.769 59.881ZM204.003 71.8342C202.134 76.2559 203.421 77.9193 210.361 80.0424L216.278 81.8539L216.981 76.5693C217.368 73.6627 217.368 70.9978 216.981 70.6466C216.595 70.2954 213.814 69.7158 210.802 69.359L205.325 68.7095L204.003 71.8342ZM20.1799 78.2563C20.1799 79.7714 14.3805 85.8452 11.5392 87.3056C8.41019 88.9142 3.08657 89.1238 3.08657 87.6389C3.08657 84.4103 6.4587 81.314 11.9903 79.4637C18.7194 77.2132 20.1799 76.9979 20.1799 78.2563ZM38.7784 83.2171C34.5544 84.3509 26.8273 91.4178 26.8273 94.1488C26.8273 95.8159 27.1207 95.7989 33.1053 93.7976C37.8496 92.2098 40.1098 91.9002 42.3642 92.5289C49.5633 94.5368 52.0666 103.075 47.0069 108.368C45.5711 109.869 41.67 112.073 38.3387 113.263C32.8546 115.222 32.4463 115.546 34.0217 116.691C35.9713 118.108 41.5608 119.813 44.2853 119.82C48.042 119.832 53.5784 117.509 57.2572 114.38C64.1582 108.507 64.6548 108.463 115.787 109.141L161.82 109.751L166.244 112.665C171.86 116.363 179.844 116.782 184.159 113.603C188.873 110.131 191.113 105.902 191.113 100.474C191.113 94.2394 188.383 89.9281 182.595 87.0215C176.798 84.1101 174.268 84.3329 166.739 88.4205L160.25 91.9436L112.294 91.6188C60.0548 91.2648 64.123 91.6792 54.2346 85.6961C49.3126 82.7187 43.8827 81.8473 38.7784 83.2171ZM183.434 90.317C193.523 97.6369 188.527 113.218 176.092 113.218C170.607 113.218 166.821 110.854 164.425 105.936C158.775 94.3348 172.935 82.7007 183.434 90.317ZM169.478 91.0911C164.977 94.2253 163.182 101.725 165.808 106.43C167.57 109.587 172.114 112.261 175.729 112.267C182.689 112.281 187.315 107.366 187.315 99.9545C187.315 96.7581 186.72 95.4459 184.086 92.8272C181.297 90.0546 180.227 89.6175 176.226 89.6175C173.565 89.6175 170.693 90.2444 169.478 91.0911ZM177.318 91.464C177.627 91.9606 178.503 92.1295 179.266 91.8388C180.041 91.5424 180.908 91.9776 181.236 92.8234C181.557 93.656 182.416 94.3376 183.143 94.3376C183.87 94.3376 184.526 95.0805 184.599 95.9896C185.103 102.26 185.045 104.722 184.393 104.722C183.981 104.722 183.388 105.525 183.074 106.508C181.832 110.397 169.272 110.793 169.272 106.942C169.272 106.208 168.692 105.385 167.985 105.115C167.166 104.804 166.772 103.354 166.902 101.134C167.014 99.2125 167.22 97.535 167.358 97.4057C167.497 97.2763 167.663 96.8411 167.729 96.4399C167.983 94.871 172.028 91.3375 172.932 91.8926C173.458 92.2155 174.157 92.0484 174.485 91.5207C175.236 90.3133 176.586 90.2859 177.318 91.464ZM156.927 97.1696C159.526 99.7534 159.308 102.319 156.288 104.681C153.783 106.639 153.2 106.662 111.28 106.401C71.0535 106.152 68.7031 106.042 66.8105 104.339C64.4326 102.199 64.2855 100.226 66.2911 97.3802L67.7687 95.2816H111.398C153.761 95.2816 155.082 95.3364 156.927 97.1696ZM68.3736 97.2452C66.4658 98.3497 66.1724 101.92 67.8513 103.589C69.4913 105.219 154.147 105.219 155.787 103.589C157.531 101.855 157.143 98.2949 155.09 97.2027C152.596 95.8764 70.6689 95.916 68.3736 97.2452ZM183.516 117.108C181.688 118.082 178.853 118.88 177.215 118.88C175.023 118.882 173.791 119.56 172.542 121.454C169.495 126.079 162.263 133.198 156.452 137.296C143.073 146.728 131.435 150.425 115.143 150.421C101.885 150.416 95.2833 148.859 82.8555 142.807C75.0466 139.006 72.5795 137.159 64.5001 129.071L55.1652 119.727L50.9678 121.321C48.6583 122.197 46.7695 123.137 46.7695 123.407C46.7695 124.501 54.5745 133.814 59.2999 138.361C68.6006 147.31 78.9012 153.203 92.8674 157.566C102.346 160.527 119.624 161.215 130.363 159.06C153.985 154.318 173.132 140.726 185.298 120.062C188.486 114.646 188.401 114.506 183.516 117.108Z" fill="black"/>
</svg>
